<svg width="30" height="30" viewBox="0 0 30 30" fill="none" xmlns="http://www.w3.org/2000/svg">
<circle cx="15" cy="15" r="15" fill="white"/>
<path d="M18.2192 6.41504H11.7805C8.81771 6.41504 6.41504 8.81771 6.41504 11.7805V18.2192C6.41504 21.182 8.81771 23.5847 11.7805 23.5847H18.2192C21.182 23.5847 23.5847 21.182 23.5847 18.2192V11.7805C23.5847 8.81771 21.182 6.41504 18.2192 6.41504ZM21.975 18.2192C21.975 20.2902 20.2902 21.975 18.2192 21.975H11.7805C9.70946 21.975 8.02469 20.2902 8.02469 18.2192V11.7805C8.02469 9.70946 9.70946 8.02469 11.7805 8.02469H18.2192C20.2902 8.02469 21.975 9.70946 21.975 11.7805V18.2192Z" fill="#011014"/>
<path d="M15.0004 10.7073C12.6299 10.7073 10.708 12.6292 10.708 14.9997C10.708 17.3702 12.6299 19.2921 15.0004 19.2921C17.3709 19.2921 19.2928 17.3702 19.2928 14.9997C19.2928 12.6292 17.3709 10.7073 15.0004 10.7073ZM15.0004 17.6824C13.5217 17.6824 12.3177 16.4784 12.3177 14.9997C12.3177 13.5199 13.5217 12.3169 15.0004 12.3169C16.4792 12.3169 17.6832 13.5199 17.6832 14.9997C17.6832 16.4784 16.4792 17.6824 15.0004 17.6824Z" fill="#011014"/>
<path d="M19.6149 10.9584C19.9308 10.9584 20.1869 10.7023 20.1869 10.3864C20.1869 10.0705 19.9308 9.81445 19.6149 9.81445C19.299 9.81445 19.043 10.0705 19.043 10.3864C19.043 10.7023 19.299 10.9584 19.6149 10.9584Z" fill="#011014"/>
</svg>
