<svg width="22" height="20" viewBox="0 0 22 20" fill="none" xmlns="http://www.w3.org/2000/svg">
<path d="M15.8114 19.1719C15.1012 19.1719 14.3971 19.0625 13.7085 18.8445C10.6751 17.8842 7.8595 16.3202 5.56591 14.3215C3.27232 12.3228 1.47758 9.86907 0.375686 7.22563C0.0215937 6.37611 -0.0829025 5.49918 0.0652054 4.61911C0.203946 3.79475 0.570371 2.99447 1.12491 2.30476C1.68189 1.61202 2.42445 1.03584 3.27228 0.638525C4.17639 0.214851 5.16322 0 6.20543 0C6.52958 0 6.80972 0.197365 6.87765 0.473548L7.95673 4.86189C8.00559 5.06061 7.93551 5.26737 7.77064 5.41108L5.92679 7.01785C7.66619 10.0315 10.4886 12.4911 13.9469 14.0069L15.7907 12.4001C15.9556 12.2564 16.1929 12.1954 16.4209 12.2379L21.4566 13.1783C21.7736 13.2375 22 13.4816 22 13.7641C22 14.6723 21.7535 15.5323 21.2672 16.3202C20.8113 17.059 20.1501 17.7061 19.3552 18.1915C18.5638 18.6748 17.6454 18.9941 16.6994 19.115C16.403 19.1529 16.1066 19.1718 15.8114 19.1719Z" fill="#F4D65D"/>
</svg>
