<svg width="24" height="18" viewBox="0 0 24 18" fill="none" xmlns="http://www.w3.org/2000/svg">
<path fill-rule="evenodd" clip-rule="evenodd" d="M17 12C15.8954 12 15 12.8954 15 14C15 15.1046 15.8954 16 17 16C18.1046 16 19 15.1046 19 14C19 12.8954 18.1046 12 17 12ZM13 14C13 11.7909 14.7909 10 17 10C19.2091 10 21 11.7909 21 14C21 16.2091 19.2091 18 17 18C14.7909 18 13 16.2091 13 14Z" fill="#011014"/>
<path d="M9 14C9 15.6569 7.65685 17 6 17C4.34315 17 3 15.6569 3 14C3 12.3431 4.34315 11 6 11C7.65685 11 9 12.3431 9 14Z" fill="#F4D65D"/>
<path d="M20 14C20 15.6569 18.6569 17 17 17C15.3431 17 14 15.6569 14 14C14 12.3431 15.3431 11 17 11C18.6569 11 20 12.3431 20 14Z" fill="#F4D65D"/>
<path fill-rule="evenodd" clip-rule="evenodd" d="M0 5C0 2.23858 2.23858 0 5 0H14C19.5228 0 24 4.47715 24 10V14H0V5ZM5 2C3.34315 2 2 3.34315 2 5V8H21C21 4.68629 18.3137 2 15 2H5Z" fill="#F4D65D"/>
<path fill-rule="evenodd" clip-rule="evenodd" d="M6 12C4.89543 12 4 12.8954 4 14C4 15.1046 4.89543 16 6 16C7.10457 16 8 15.1046 8 14C8 12.8954 7.10457 12 6 12ZM2 14C2 11.7909 3.79086 10 6 10C8.20914 10 10 11.7909 10 14C10 16.2091 8.20914 18 6 18C3.79086 18 2 16.2091 2 14Z" fill="#011014"/>
<path fill-rule="evenodd" clip-rule="evenodd" d="M17 12C15.8954 12 15 12.8954 15 14C15 15.1046 15.8954 16 17 16C18.1046 16 19 15.1046 19 14C19 12.8954 18.1046 12 17 12ZM13 14C13 11.7909 14.7909 10 17 10C19.2091 10 21 11.7909 21 14C21 16.2091 19.2091 18 17 18C14.7909 18 13 16.2091 13 14Z" fill="#011014"/>
<rect x="8" y="2" width="2" height="7" fill="#F4D65D"/>
</svg>
