<svg width="189" height="92" viewBox="0 0 189 92" fill="none" xmlns="http://www.w3.org/2000/svg">
<path fill-rule="evenodd" clip-rule="evenodd" d="M99.1173 2.70022L99.1239 6.31231C99.1239 8.23653 99.8046 8.98679 101.922 8.98679L113.03 8.90268C113.895 8.94703 114.12 9.44005 114.111 10.245L114.231 17.2574C114.216 18.1806 114.026 18.5445 113.109 18.5693L85.4196 18.8976C84.4319 18.9565 84.0461 19.2262 84 20.1195L84.1207 45.4232C84.1524 46.3533 84.7284 46.9603 85.8279 47.047L102.448 46.9017C103.516 46.8554 103.924 46.3034 103.991 45.2946L103.988 39.3722C103.934 38.4947 103.482 38.0756 102.428 38.0966L95.2459 38.1091C94.2411 38.0931 93.8579 37.7286 93.8337 36.7686L93.8557 29.4707C93.8207 28.5312 94.0384 27.9863 95.0909 27.9727L112.409 28.1526C113.721 28.2225 113.966 28.6678 113.957 29.5441L113.922 55.5075C113.917 56.271 113.718 56.7046 112.801 56.7529L100.625 56.715C99.2633 56.7134 99.1835 57.1237 99.1614 58.1121L99.2375 64.3487C99.2154 65.3941 99.6445 65.8616 100.802 65.9168L137.806 65.9998C138.877 66.0108 138.986 65.6181 138.979 64.6024L139 58.625C138.991 57.773 138.972 56.8108 137.516 56.8115L125.593 56.8075C124.571 56.8021 124.229 56.0451 124.236 55.453C124.253 40.2432 124.268 25.492 124.285 10.2822C124.339 9.4288 124.606 8.94155 125.524 8.9367L136.31 8.94061C138.23 8.94061 138.633 7.98328 138.633 6.31269L138.649 2.15492C138.649 0.428002 138.218 2.24645e-10 136.247 2.24645e-10L101.922 0.0111018C99.2974 0.0087548 99.1008 0.612101 99.1173 2.70022Z" fill="#F4D65D"/>
<path fill-rule="evenodd" clip-rule="evenodd" d="M56.068 8.84764L65.8732 8.96236C66.7977 8.99581 67.2846 9.52322 67.2286 10.5456L67.1592 55.2716C67.1086 56.4639 66.6902 56.9969 65.6416 56.9802L56.124 56.8074C54.3829 56.8477 54.0076 57.3457 54 59.3455L54.0288 63.7775C54.0621 65.6722 54.5677 65.827 56.2291 66L88.9599 65.8284C90.6379 65.8284 91 65.0104 91 63.6124L90.9963 59.3269C90.9478 57.6252 90.6717 57.0407 88.75 56.9689L79.0415 56.9514C77.968 56.9926 77.2618 56.3563 77.1859 55.152L77.161 10.4856C77.2035 9.26077 77.5966 8.93359 78.7074 8.89905L88.8802 8.77858C90.4722 8.76796 90.6986 8.20802 90.8197 6.76872L90.7856 2.44631C90.7433 0.906683 90.6077 0.200615 88.7796 0.162484L55.9203 0.00543575C54.6493 -0.0740302 54.254 0.725323 54.2611 1.90942C54.2824 3.64548 54.3037 5.38155 54.325 7.11761C54.3287 8.55527 54.8392 8.82037 56.068 8.84764Z" fill="#F4D65D"/>
<path fill-rule="evenodd" clip-rule="evenodd" d="M9.8456 78.2954L10.1007 78.3151L10.4333 78.3349L10.7083 78.3544L10.9634 78.3349L11.2959 78.3151L11.5705 78.2954V91.7635L11.1183 91.7242L10.7083 91.7046L10.2785 91.7242L9.8456 91.7635V84.9905L5.79488 84.8916L1.72527 84.9905V91.7635L1.27304 91.7242L0.862654 91.7046L0.410425 91.7242L0 91.7635V78.2954L0.255541 78.3151L0.60753 78.3349L0.862654 78.3544L1.11778 78.3349L1.47014 78.3151L1.72527 78.2954V83.9464L3.71166 84.0058C3.81505 84.0058 4.00856 84.0058 4.28964 84.0058C4.41898 84.0058 4.5549 84.0058 4.69694 84.0058C4.79691 84.0058 4.85492 84.0058 4.86803 84.0058H5.39112C5.45572 84.0058 5.53019 84.0058 5.62074 84.0058C5.71088 84.0058 5.76934 84.0058 5.79488 84.0058H7.89789L9.8456 83.9464V78.2954ZM83.3753 82.9029C83.3753 83.6908 83.1624 84.0844 82.7357 84.0844C82.2967 84.0844 82.0768 83.6908 82.0768 82.9029V79.103C82.0768 78.3679 82.2967 78 82.7357 78C83.1879 78 83.4012 78.3544 83.3753 79.0632V82.9029ZM118.978 80.6582C117.88 79.385 116.426 78.7486 114.617 78.7486C112.64 78.7486 111.154 79.4636 110.16 80.8945C109.63 81.6427 109.288 82.5222 109.132 83.533C109.068 83.9401 109.036 84.4058 109.036 84.931C109.036 88.3309 110.389 90.3723 113.096 91.0548C113.612 91.1862 114.187 91.2518 114.817 91.2518C116.003 91.2518 117.01 91.0284 117.834 90.5824V85.5217L118.089 85.5415L118.422 85.5611L118.697 85.5807L118.952 85.5611L119.285 85.5415L119.559 85.5217V91.0942C117.854 91.698 116.096 92 114.288 92C111.161 92 109.036 90.8774 107.911 88.633C107.394 87.5958 107.136 86.3945 107.136 85.0297C107.136 82.0368 108.357 79.9628 110.799 78.8076C111.936 78.2691 113.235 78 114.695 78C116.336 78 117.666 78.2235 118.687 78.6696C119.075 78.8402 119.391 78.998 119.637 79.1423C119.52 79.418 119.372 79.9231 119.191 80.6582H118.978ZM17.85 84.1239H21.8067L22.5592 84.0649L22.5398 84.2222L22.5012 84.4193V84.7343L22.5398 84.9506L22.5592 85.1281C22.4558 85.1281 22.3204 85.1211 22.1555 85.1084C21.9487 85.0556 21.8067 85.0297 21.7292 85.0297H17.85V90.7593L21.8453 90.6807C21.9101 90.6682 22.0133 90.6543 22.1555 90.6414L22.6595 90.602C22.6854 90.5881 22.8373 90.5627 23.1214 90.5231L23.102 90.7004L23.0827 90.9369L23.0633 91.1138C23.0633 91.2582 23.0702 91.3502 23.0827 91.3895L23.1214 91.7046H16.1248V78.2954H23.0053L22.9665 78.5909L22.9468 78.8863L22.9665 79.2013L23.0053 79.4769L22.2332 79.313C21.9874 79.2671 21.6681 79.2375 21.2673 79.221H17.85V84.1239ZM37.773 91.7635L37.2465 91.7242L36.7588 91.7046L36.2291 91.7242L35.7219 91.7635L34.7657 89.1349L33.6933 86.4473H28.7772C27.8082 88.902 27.1687 90.674 26.8585 91.7635L26.4741 91.7242L26.1446 91.7046L25.7764 91.7242L25.4664 91.7635L31.5132 78H31.9589L37.773 91.7635ZM31.2642 80.5993L29.1424 85.6202H33.4059L31.2642 80.5993ZM49.1881 81.8987L50.4866 78.2954L50.8548 78.3349L51.2036 78.3544L51.4169 78.3349L51.9013 78.2954L51.5524 79.0239L49.1107 84.7343L47.3082 89.1055C46.8946 90.1292 46.559 91.0155 46.3004 91.7635L46.1068 91.7242L45.9129 91.7046L45.6995 91.7242L45.506 91.7635L44.7305 90.0899L43.9361 88.2983L40.4669 80.2055C40.312 79.8511 40.0273 79.2143 39.6139 78.2954L39.9047 78.3151L40.2729 78.3349L40.5443 78.3544L40.8351 78.3349L41.4939 78.2954C41.5458 78.4532 41.6747 78.8009 41.8815 79.3389L42.211 80.2055L43.5098 83.6512L45.8935 89.6175H46.0677L46.9206 87.8059L47.1533 87.2347L49.1881 81.8987ZM56.5916 84.1239H60.5483L61.3008 84.0649L61.2816 84.2222L61.2427 84.4193V84.7343L61.2816 84.9506L61.3008 85.1281C61.1976 85.1281 61.0619 85.1211 60.8971 85.1084C60.6903 85.0556 60.5483 85.0297 60.4708 85.0297H56.5916V90.7593L60.5869 90.6807C60.6516 90.6682 60.7551 90.6543 60.8971 90.6414L61.4012 90.602C61.427 90.5881 61.5789 90.5627 61.8629 90.5231L61.8437 90.7004L61.8243 90.9369L61.8049 91.1138C61.8049 91.2582 61.8117 91.3502 61.8243 91.3895L61.8629 91.7046H54.8665V78.2954H61.7469L61.7081 78.5909L61.6884 78.8863L61.7081 79.2013L61.7469 79.4769L60.9749 79.313C60.7291 79.2671 60.4096 79.2375 60.0089 79.221H56.5916V84.1239ZM77.0768 91.7635H76.4953L75.9138 91.0351L75.4875 90.5627L67.1085 81.1573L66.9211 81.1504V91.7633L66.6303 91.724L66.3787 91.7043L66.088 91.724L65.8359 91.7633V78.2952H66.5917L75.7977 88.4357H75.9912V78.2952L76.2626 78.3345L76.534 78.3541L76.6893 78.3345L76.9022 78.3149L77.0768 78.2952V91.7635ZM87.9297 89.1055C88.7698 90.4577 89.8163 91.1334 91.0695 91.1334C92.0905 91.1334 92.8655 90.6611 93.3952 89.7159C93.6406 89.2695 93.7637 88.7904 93.7637 88.2786C93.7637 87.4645 93.4536 86.8147 92.8334 86.3293C92.4587 86.0401 91.7416 85.6924 90.6819 85.2855C89.7129 84.905 89.0153 84.5109 88.5887 84.1042C87.9943 83.5264 87.6974 82.752 87.6974 81.7808C87.6974 80.1926 88.4079 79.0767 89.8291 78.4335C90.4753 78.1445 91.1988 78 91.9999 78C93.1884 78 94.1125 78.3151 94.7714 78.9452C94.7067 79.0766 94.5322 79.6146 94.2479 80.5598H94.054C93.615 79.418 92.814 78.8468 91.6511 78.8468C90.9661 78.8468 90.3881 79.0602 89.9165 79.4869C89.4447 79.9133 89.2089 80.4679 89.2089 81.1507C89.2089 81.9382 89.5322 82.5816 90.1779 83.0804C90.5527 83.369 91.231 83.7105 92.2132 84.1042C93.2724 84.5243 94.0025 84.918 94.4028 85.2855C95.0103 85.8238 95.3138 86.5654 95.3138 87.5105C95.3138 89.3352 94.526 90.6477 92.9495 91.4486C92.2132 91.8163 91.4055 92 90.5268 92C89.9971 92 89.435 91.9016 88.8407 91.7046C88.169 91.4816 87.678 91.1991 87.368 90.8578C87.51 90.4377 87.6328 89.8535 87.7362 89.1055H87.9297ZM134.637 91.7635L134.111 91.7242L133.623 91.7046L133.093 91.7242L132.586 91.7635L131.63 89.1349L130.558 86.4473H125.642C124.672 88.902 124.033 90.674 123.723 91.7635L123.338 91.7242L123.009 91.7046L122.641 91.7242L122.331 91.7635L128.377 78H128.823L134.637 91.7635ZM128.129 80.5993L126.007 85.6202H130.27L128.129 80.5993ZM139.482 84.4389H140.39C141.908 84.4912 143.035 84.1239 143.769 83.3397C144.218 82.8569 144.444 82.2469 144.444 81.515C144.444 80.1036 143.736 79.28 142.322 79.0437C142.012 78.9913 141.611 78.9716 141.123 78.9845H139.482V84.4389ZM137.757 78.2954H141.866C143.804 78.2954 145.083 78.7285 145.704 79.5951C146.014 80.025 146.169 80.5894 146.169 81.2851C146.169 83.2805 144.848 84.5244 142.202 85.0231L147.49 91.7605L146.908 91.7242L146.363 91.7046L145.8 91.7242L145.258 91.7635L144.037 90.0506L141.75 87.0381L140.199 85.187H139.482V91.7635L139.03 91.7242L138.62 91.7046L138.168 91.7242L137.757 91.7635V78.2954ZM152.584 90.8578L153.472 90.9171H155.038C156.366 90.9564 157.438 90.7594 158.25 90.3263C160.107 89.3583 161.034 87.4778 161.034 84.6852C161.034 83.5988 160.924 82.6996 160.704 81.9909C160.281 80.6157 159.312 79.7264 157.803 79.3193C156.954 79.0962 156.027 78.9913 155.019 79.0042H153.821L152.584 79.0632V90.8578ZM150.859 78.2954H156.596C157.551 78.2954 158.301 78.3544 158.844 78.4729C159.606 78.6436 160.278 78.9782 160.859 79.4735C162.242 80.6421 162.933 82.2795 162.933 84.3898C162.933 86.7888 162.119 88.7215 160.491 90.1918C159.6 90.9891 158.404 91.4619 156.906 91.6062C156.363 91.672 155.607 91.7046 154.638 91.7046H150.859V78.2954ZM168.515 84.1239H172.472L173.224 84.0649L173.205 84.2222L173.166 84.4193V84.7343L173.205 84.9506L173.224 85.1281C173.121 85.1281 172.985 85.1211 172.82 85.1084C172.614 85.0556 172.472 85.0297 172.394 85.0297H168.515V90.7593L172.51 90.6807C172.575 90.6682 172.678 90.6543 172.82 90.6414L173.324 90.602C173.35 90.5881 173.502 90.5627 173.786 90.5231L173.767 90.7004L173.748 90.9369L173.728 91.1138C173.728 91.2582 173.735 91.3502 173.748 91.3895L173.786 91.7046H166.79V78.2954H173.67L173.631 78.5909L173.612 78.8863L173.631 79.2013L173.67 79.4769L172.898 79.313C172.652 79.2671 172.333 79.2375 171.932 79.221H168.515V84.1239ZM189 91.7635H188.418L187.837 91.0351L187.411 90.5627L179.032 81.1573L178.844 81.1504V91.7633L178.554 91.724L178.302 91.7043L178.011 91.724L177.759 91.7633V78.2952H178.515L187.721 88.4357H187.914V78.2952L188.186 78.3345L188.457 78.3541L188.613 78.3345L188.825 78.3149L189 78.2952V91.7635Z" fill="#F4D65D"/>
</svg>
