<svg width="85" height="64" viewBox="0 0 85 64" fill="none" xmlns="http://www.w3.org/2000/svg">
<path fill-rule="evenodd" clip-rule="evenodd" d="M45.2817 2.20329L45.2866 5.06835C45.2866 6.59461 45.7911 7.18971 47.3603 7.18971L55.594 7.12299C56.2354 7.15817 56.4016 7.54923 56.3953 8.18769L56.4839 13.7498C56.4728 14.4821 56.3323 14.7707 55.6521 14.7904L35.1289 15.0508C34.3967 15.0976 34.1108 15.3115 34.0767 16.02L34.1661 36.0905C34.1896 36.8283 34.6166 37.3097 35.4315 37.3785L47.7507 37.2633C48.5419 37.2265 48.8441 36.7887 48.8944 35.9885L48.8919 31.291C48.8521 30.5949 48.5169 30.2625 47.7357 30.2792L42.4122 30.2891C41.6674 30.2764 41.3834 29.9872 41.3654 29.2258L41.3818 23.4373C41.3559 22.692 41.5172 22.2598 42.2973 22.2491L55.1339 22.3917C56.1064 22.4471 56.2874 22.8004 56.2813 23.4955L56.255 44.0892C56.2513 44.6948 56.104 45.0387 55.4239 45.077L46.3993 45.047C45.3899 45.0458 45.3308 45.3711 45.3144 46.1551L45.3708 51.102C45.3544 51.9311 45.6724 52.3019 46.5304 52.3457L73.9581 52.4115C74.7516 52.4203 74.8329 52.1088 74.8276 51.3032L74.843 46.562C74.836 45.8862 74.8219 45.1229 73.7428 45.1235L64.9056 45.1204C64.1481 45.1161 63.8949 44.5156 63.9001 44.046C63.9121 31.9818 63.9238 20.2814 63.9358 8.21718C63.9758 7.5403 64.1738 7.15382 64.8543 7.14997L72.8494 7.15308C74.2723 7.15308 74.5707 6.39374 74.5707 5.06865L74.583 1.77077C74.583 0.401008 74.2634 0.0615234 72.8027 0.0615234L47.3604 0.0703292C45.4152 0.0684676 45.2691 0.547032 45.2814 2.20329H45.2817Z" fill="black"/>
<path fill-rule="evenodd" clip-rule="evenodd" d="M9.42002 7.02637L17.4796 7.11748C18.2395 7.14404 18.6396 7.56289 18.5936 8.37479L18.5366 43.894C18.495 44.8409 18.1511 45.2642 17.2891 45.251L9.46603 45.1138C8.03491 45.1458 7.72648 45.5412 7.72021 47.1294L7.74392 50.6491C7.77124 52.1537 8.18686 52.2767 9.55247 52.4141L36.456 52.2777C37.8352 52.2777 38.1328 51.6282 38.1328 50.5179L38.1298 47.1146C38.0899 45.7632 37.863 45.299 36.2834 45.242L28.3034 45.2281C27.421 45.2608 26.8405 44.7555 26.7782 43.7991L26.7577 8.32715C26.7926 7.35446 27.1157 7.09463 28.0288 7.0672L36.3904 6.97153C37.699 6.96309 37.8851 6.51842 37.9846 5.3754L37.9566 1.94274C37.9218 0.720044 37.8104 0.159319 36.3078 0.129037L9.29863 0.00431682C8.25392 -0.0587913 7.92897 0.576017 7.93487 1.51637C7.95231 2.89507 7.96988 4.27377 7.98732 5.65247C7.99039 6.79418 8.41025 7.00472 9.42027 7.02637H9.42002Z" fill="black"/>
<path fill-rule="evenodd" clip-rule="evenodd" d="M4.42643 57.8714L4.54113 57.8802L4.69064 57.889L4.81426 57.8978L4.92896 57.889L5.07848 57.8802L5.20189 57.8714V63.8943L4.99859 63.8767L4.81426 63.868L4.62103 63.8767L4.42643 63.8943V60.8654L2.60528 60.8212L0.775652 60.8654V63.8943L0.572337 63.8767L0.387836 63.868L0.18452 63.8767L0 63.8943V57.8714L0.114887 57.8802L0.273136 57.889L0.387836 57.8978L0.502535 57.889L0.660953 57.8802L0.775652 57.8714V60.3985L1.6687 60.425C1.71519 60.425 1.80219 60.425 1.92855 60.425C1.9867 60.425 2.04781 60.425 2.11167 60.425C2.15662 60.425 2.1827 60.425 2.18859 60.425H2.42376C2.45281 60.425 2.48628 60.425 2.52699 60.425C2.56752 60.425 2.5938 60.425 2.60528 60.425H3.55077L4.42643 60.3985V57.8714ZM37.4842 59.9318C37.4842 60.2842 37.3885 60.4602 37.1966 60.4602C36.9993 60.4602 36.9004 60.2842 36.9004 59.9318V58.2325C36.9004 57.9038 36.9993 57.7393 37.1966 57.7393C37.4 57.7393 37.4959 57.8978 37.4842 58.2147V58.4438V59.9318ZM53.4906 58.928C52.9968 58.3586 52.3432 58.074 51.53 58.074C50.6413 58.074 49.9733 58.3938 49.5259 59.0337C49.2878 59.3683 49.1339 59.7616 49.0641 60.2136C49.0351 60.3957 49.0207 60.6039 49.0207 60.8388C49.0207 62.3592 49.6291 63.2722 50.8459 63.5773C51.0784 63.6361 51.3368 63.6655 51.62 63.6655C52.153 63.6655 52.606 63.5656 52.9764 63.3661V61.103L53.0911 61.1118L53.2408 61.1206L53.3642 61.1293L53.4789 61.1206L53.6284 61.1118L53.7518 61.103V63.595C52.9851 63.865 52.1951 64.0001 51.3819 64.0001C49.9762 64.0001 49.0207 63.498 48.5152 62.4943C48.2828 62.0305 48.1667 61.4933 48.1667 60.8829C48.1667 59.5445 48.7157 58.617 49.8134 58.1004C50.3247 57.8596 50.9084 57.7393 51.5648 57.7393C52.3027 57.7393 52.9008 57.8392 53.3598 58.0387C53.5341 58.115 53.6764 58.1856 53.7868 58.2501C53.7344 58.3734 53.6676 58.5993 53.5863 58.928H53.4906ZM8.02509 60.4779H9.80394L10.1423 60.4515L10.1336 60.5218L10.1162 60.61V60.7508L10.1336 60.8476L10.1423 60.9269C10.0958 60.9269 10.0349 60.9238 9.96076 60.9181C9.8678 60.8945 9.80394 60.8829 9.76912 60.8829H9.36982H8.02509V63.4452L9.82131 63.4101C9.85041 63.4045 9.89684 63.3983 9.96076 63.3925L10.1873 63.3749C10.199 63.3687 10.2673 63.3573 10.395 63.3396L10.3863 63.4189L10.3776 63.5246L10.3689 63.6037C10.3689 63.6683 10.372 63.7095 10.3776 63.727L10.395 63.868H7.24944V57.8714H10.3428L10.3254 58.0035L10.3165 58.1356L10.3254 58.2765L10.3428 58.3997L9.99569 58.3264C9.88517 58.3059 9.74161 58.2927 9.56146 58.2853H8.69309H8.02509V60.4779ZM16.9821 63.8943L16.7454 63.8767L16.5262 63.868L16.288 63.8767L16.06 63.8943L15.6301 62.7188L15.148 61.5169H12.9378C12.5021 62.6147 12.2146 63.4071 12.0752 63.8943L11.9023 63.8767L11.7542 63.868L11.5887 63.8767L11.4493 63.8943L14.1679 57.7393H14.3682L16.9821 63.8943ZM14.0559 58.9017L13.102 61.147H15.0188L14.0559 58.9017ZM22.1142 59.4828L22.698 57.8714L22.8635 57.889L23.0203 57.8978L23.1162 57.889L23.334 57.8714L23.1772 58.1972L22.0794 60.7508L21.269 62.7056C21.0831 63.1635 20.9322 63.5598 20.8159 63.8943L20.7289 63.8767L20.6417 63.868L20.5458 63.8767L20.4588 63.8943L20.1101 63.1459L19.7529 62.3447L18.1932 58.7255C18.1236 58.5671 17.9956 58.2823 17.8098 57.8714L17.9405 57.8802L18.1061 57.889L18.2281 57.8978L18.3588 57.889L18.655 57.8714C18.6783 57.9419 18.7363 58.0974 18.8293 58.338L18.9774 58.7255L19.5613 60.2665L20.633 62.9346H20.7113L21.0947 62.1245L21.1994 61.869L22.1142 59.4828ZM25.4427 60.4779H27.2215L27.5599 60.4515L27.5512 60.5218L27.5338 60.61V60.7508L27.5512 60.8476L27.5599 60.9269C27.5134 60.9269 27.4525 60.9238 27.3784 60.9181C27.2854 60.8945 27.2215 60.8829 27.1867 60.8829H26.7874H25.4427V63.4452L27.2389 63.4101C27.268 63.4045 27.3145 63.3983 27.3784 63.3925L27.605 63.3749C27.6166 63.3687 27.6849 63.3573 27.8126 63.3396L27.8039 63.4189L27.7952 63.5246L27.7865 63.6037C27.7865 63.6683 27.7896 63.7095 27.7952 63.727L27.8126 63.868H24.6671V57.8714H27.7604L27.743 58.0035L27.7341 58.1356L27.743 58.2765L27.7604 58.3997L27.4133 58.3264C27.3028 58.3059 27.1592 58.2927 26.9791 58.2853H26.1107H25.4427V60.4779ZM34.6525 63.8943H34.3911L34.1296 63.5686L33.938 63.3573L30.1709 59.1512L30.0866 59.1481V63.8942L29.9559 63.8766L29.8428 63.8678L29.7121 63.8766L29.5987 63.8942V57.8712H29.9386L34.0774 62.4061H34.1644V57.8712L34.2864 57.8889L34.4085 57.8976L34.4783 57.8889L34.574 57.8801L34.6525 57.8712V63.8943ZM39.5318 62.7056C39.9095 63.3103 40.38 63.6125 40.9434 63.6125C41.4024 63.6125 41.7508 63.4013 41.989 62.9786C42.0993 62.779 42.1546 62.5647 42.1546 62.3359C42.1546 61.9718 42.0153 61.6812 41.7364 61.4641C41.5679 61.3348 41.2456 61.1793 40.7691 60.9973C40.3335 60.8272 40.0198 60.6509 39.8281 60.469C39.5608 60.2107 39.4274 59.8644 39.4274 59.43C39.4274 58.7198 39.7468 58.2208 40.3857 57.9331C40.6762 57.8039 41.0015 57.7393 41.3617 57.7393C41.896 57.7393 42.3115 57.8802 42.6077 58.162C42.5786 58.2207 42.5001 58.4613 42.3724 58.884H42.2852C42.0878 58.3734 41.7277 58.118 41.2048 58.118C40.8969 58.118 40.6371 58.2134 40.425 58.4042C40.2129 58.5949 40.1069 58.8429 40.1069 59.1483C40.1069 59.5004 40.2523 59.7881 40.5426 60.0112C40.7111 60.1403 41.016 60.293 41.4576 60.469C41.9338 60.6569 42.262 60.833 42.442 60.9973C42.7151 61.2381 42.8516 61.5697 42.8516 61.9923C42.8516 62.8083 42.4974 63.3953 41.7886 63.7535C41.4576 63.9179 41.0945 64.0001 40.6994 64.0001C40.4613 64.0001 40.2085 63.9561 39.9414 63.868C39.6394 63.7682 39.4186 63.6419 39.2793 63.4893C39.3431 63.3014 39.3983 63.0402 39.4448 62.7056H39.5318ZM60.5308 63.8943L60.2941 63.8767L60.0748 63.868L59.8366 63.8767L59.6086 63.8943L59.1787 62.7188L58.6966 61.5169H56.4864C56.0508 62.6147 55.7632 63.4071 55.6238 63.8943L55.451 63.8767L55.3028 63.868L55.1373 63.8767L54.9979 63.8943L57.7164 57.7393H57.9168L60.5308 63.8943ZM57.6046 58.9017L56.6505 61.147H58.5674L57.6046 58.9017ZM62.7091 60.6187H62.8659H63.1171C63.7997 60.6421 64.3064 60.4779 64.6361 60.1272C64.838 59.9113 64.9396 59.6385 64.9396 59.3112C64.9396 58.68 64.6216 58.3117 63.9856 58.206C63.8462 58.1826 63.666 58.1738 63.4468 58.1795H62.7091V60.6187ZM61.9335 57.8714H63.7807C64.6521 57.8714 65.2272 58.0651 65.506 58.4526C65.6454 58.6448 65.7151 58.8972 65.7151 59.2084C65.7151 60.1007 65.1212 60.657 63.9319 60.88L66.3091 63.893L66.0477 63.8767L65.8022 63.868L65.5495 63.8767L65.3057 63.8943L64.7567 63.1283L63.7285 61.7811L63.0314 60.9533H62.7091V63.8943L62.5058 63.8767L62.3213 63.868L62.118 63.8767L61.9335 63.8943V57.8714ZM68.5992 63.4893L68.9986 63.5158H69.3645H69.7028C70.2997 63.5334 70.7818 63.4453 71.1465 63.2516C71.9814 62.8187 72.3983 61.9777 72.3983 60.7289C72.3983 60.243 72.3489 59.8409 72.25 59.524C72.0599 58.909 71.6242 58.5113 70.9459 58.3293C70.564 58.2295 70.1472 58.1826 69.6942 58.1883H69.1554L68.5992 58.2147V63.4893ZM67.8237 57.8714H70.4029C70.8326 57.8714 71.1696 57.8978 71.4136 57.9507C71.7563 58.0271 72.0584 58.1767 72.3198 58.3982C72.9413 58.9208 73.2521 59.6531 73.2521 60.5968C73.2521 61.6696 72.8862 62.5339 72.1542 63.1914C71.7534 63.548 71.2161 63.7594 70.5423 63.8239C70.2983 63.8534 69.9585 63.868 69.5229 63.868H67.8237V57.8714ZM75.7615 60.4779H77.5405L77.8788 60.4515L77.8701 60.5218L77.8527 60.61V60.7508L77.8701 60.8476L77.8788 60.9269C77.8323 60.9269 77.7714 60.9238 77.6973 60.9181C77.6043 60.8945 77.5405 60.8829 77.5056 60.8829H77.1063H75.7615V63.4452L77.5578 63.4101C77.5868 63.4045 77.6333 63.3983 77.6973 63.3925L77.9238 63.3749C77.9355 63.3687 78.0037 63.3573 78.1315 63.3396L78.1228 63.4189L78.1141 63.5246L78.1054 63.6037C78.1054 63.6683 78.1085 63.7095 78.1141 63.727L78.1315 63.868H74.9859V57.8714H78.0793L78.0619 58.0035L78.053 58.1356L78.0619 58.2765L78.0793 58.3997L77.7322 58.3264C77.6217 58.3059 77.4781 58.2927 77.298 58.2853H76.4296H75.7615V60.4779ZM84.9714 63.8943H84.7099L84.4485 63.5686L84.2569 63.3573L80.4898 59.1512L80.4056 59.1481V63.8942L80.2748 63.8766L80.1617 63.8678L80.031 63.8766L79.9176 63.8942V57.8712H80.2574L84.3963 62.4061H84.4833V57.8712L84.6054 57.8889L84.7274 57.8976L84.7972 57.8889L84.8929 57.8801L84.9714 57.8712V63.8943Z" fill="black"/>
</svg>
